<svg id="svg" version="1.1" xmlns="http://www.w3.org/2000/svg" xmlns:xlink="http://www.w3.org/1999/xlink" width="400" height="400" viewBox="0, 0, 400,400"><g id="svgg"><path id="path0" d="M0.000 148.857 L 0.000 188.857 200.000 188.857 L 400.000 188.857 400.000 148.857 L 400.000 108.857 200.000 108.857 L 0.000 108.857 0.000 148.857 M357.297 135.295 C 364.919 137.254,364.911 146.705,357.286 149.146 C 355.964 149.569,355.725 149.843,355.719 150.942 L 355.714 151.740 353.786 151.656 L 351.857 151.571 351.455 148.783 C 350.985 145.525,350.841 145.821,353.071 145.462 C 355.326 145.099,356.691 144.450,357.103 143.544 C 358.606 140.247,354.004 138.754,350.266 141.326 L 348.781 142.347 347.261 140.674 C 345.472 138.704,345.498 138.800,346.500 137.850 C 349.203 135.289,353.406 134.295,357.297 135.295 M66.583 147.254 C 69.388 153.837,71.751 159.398,71.833 159.611 C 71.953 159.923,71.407 160.000,69.062 159.999 L 66.143 159.998 65.602 158.642 C 65.305 157.896,64.807 156.675,64.496 155.929 L 63.930 154.571 58.727 154.571 L 53.525 154.571 52.451 157.286 L 51.376 160.000 48.545 160.000 C 46.988 160.000,45.714 159.952,45.714 159.893 C 45.714 159.835,45.960 159.224,46.260 158.536 C 46.559 157.848,48.825 152.529,51.294 146.714 C 53.763 140.900,55.903 135.913,56.050 135.632 C 56.282 135.190,56.659 135.133,58.899 135.204 L 61.481 135.286 66.583 147.254 M90.438 135.455 C 98.560 136.956,99.986 146.766,92.701 151.021 C 92.223 151.300,92.418 151.682,94.890 155.306 C 96.383 157.495,97.701 159.446,97.819 159.643 C 97.986 159.920,97.305 160.000,94.771 160.000 L 91.509 160.000 88.969 156.149 L 86.429 152.297 84.357 152.292 L 82.286 152.286 82.286 156.143 L 82.286 160.000 79.429 160.000 L 76.571 160.000 76.571 147.571 L 76.571 135.143 82.662 135.143 C 86.012 135.143,89.511 135.283,90.438 135.455 M121.714 137.714 L 121.714 140.286 115.143 140.286 L 108.571 140.286 108.571 142.714 L 108.571 145.143 114.429 145.143 L 120.286 145.143 120.286 147.571 L 120.286 150.000 114.429 150.000 L 108.571 150.000 108.571 152.571 L 108.571 155.143 115.286 155.143 L 122.000 155.143 122.000 157.571 L 122.000 160.000 112.429 160.000 L 102.857 160.000 102.857 147.762 C 102.857 141.031,102.943 135.438,103.048 135.333 C 103.152 135.229,107.395 135.143,112.476 135.143 L 121.714 135.143 121.714 137.714 M143.678 137.071 C 144.004 138.132,145.141 141.865,146.204 145.366 C 147.267 148.867,148.196 151.567,148.268 151.366 C 148.339 151.165,149.569 147.464,151.000 143.143 L 153.602 135.286 156.026 135.204 L 158.451 135.122 161.184 143.444 L 163.917 151.766 164.691 149.240 C 165.116 147.851,166.263 144.143,167.239 141.000 L 169.013 135.286 171.931 135.204 L 174.849 135.123 170.616 147.633 L 166.383 160.143 163.943 160.225 L 161.502 160.307 158.823 152.441 C 157.349 148.116,156.078 144.575,155.998 144.574 C 155.919 144.572,154.634 148.107,153.143 152.429 L 150.432 160.286 148.002 160.282 L 145.571 160.278 141.459 148.068 C 139.197 141.352,137.287 135.696,137.214 135.500 C 137.114 135.229,137.802 135.143,140.083 135.143 L 143.085 135.143 143.678 137.071 M198.286 137.714 L 198.286 140.286 191.714 140.286 L 185.143 140.286 185.143 142.714 L 185.143 145.143 191.000 145.143 L 196.857 145.143 196.857 147.571 L 196.857 150.000 191.000 150.000 L 185.143 150.000 185.143 152.571 L 185.143 155.143 191.857 155.143 L 198.571 155.143 198.571 157.571 L 198.571 160.000 189.143 160.000 L 179.714 160.000 179.714 147.571 L 179.714 135.143 189.000 135.143 L 198.286 135.143 198.286 137.714 M231.440 135.942 C 237.669 138.406,238.047 148.352,232.007 150.854 L 231.152 151.208 234.161 155.604 L 237.170 160.000 233.876 160.000 L 230.582 160.000 228.000 156.143 L 225.418 152.286 223.281 152.286 L 221.143 152.286 221.143 156.143 L 221.143 160.000 218.429 160.000 L 215.714 160.000 215.714 147.546 L 215.714 135.092 222.786 135.203 C 229.239 135.306,229.996 135.370,231.440 135.942 M260.857 137.714 L 260.857 140.286 254.286 140.286 L 247.714 140.286 247.714 142.714 L 247.714 145.143 253.429 145.143 L 259.143 145.143 259.143 147.571 L 259.143 150.000 253.429 150.000 L 247.714 150.000 247.714 152.571 L 247.714 155.143 254.429 155.143 L 261.143 155.143 261.143 157.571 L 261.143 160.000 251.571 160.000 L 242.000 160.000 242.000 147.571 L 242.000 135.143 251.429 135.143 L 260.857 135.143 260.857 137.714 M285.440 147.254 C 288.245 153.837,290.608 159.398,290.690 159.611 C 290.810 159.923,290.264 160.000,287.920 159.999 L 285.000 159.998 284.460 158.642 C 284.162 157.896,283.664 156.675,283.353 155.929 L 282.787 154.571 277.584 154.571 L 272.382 154.571 271.308 157.286 L 270.234 160.000 267.372 160.000 C 265.197 160.000,264.544 159.914,264.652 159.643 C 264.731 159.446,266.466 155.364,268.509 150.571 C 270.552 145.779,272.766 140.571,273.430 139.000 C 275.242 134.708,274.785 135.109,277.756 135.204 L 280.338 135.286 285.440 147.254 M308.323 135.554 C 321.287 138.302,321.785 156.229,308.990 159.562 C 307.740 159.888,305.783 160.000,301.369 160.000 L 295.429 160.000 295.429 147.571 L 295.429 135.143 300.929 135.148 C 304.546 135.151,307.077 135.290,308.323 135.554 M328.429 140.000 C 330.000 142.664,331.350 144.846,331.429 144.849 C 331.507 144.852,332.755 142.894,334.201 140.499 C 335.647 138.103,336.999 135.913,337.205 135.633 C 337.531 135.188,337.973 135.133,340.650 135.204 L 343.721 135.286 339.003 142.663 L 334.286 150.040 334.286 155.020 L 334.286 160.000 331.429 160.000 L 328.571 160.000 328.571 155.110 L 328.571 150.220 323.857 142.797 C 321.264 138.715,319.143 135.322,319.143 135.259 C 319.143 135.195,320.589 135.146,322.357 135.150 L 325.571 135.157 328.429 140.000 M82.286 143.686 L 82.286 147.143 85.600 147.143 C 90.196 147.143,91.714 146.298,91.714 143.742 C 91.714 141.140,90.569 140.464,85.929 140.332 L 82.286 140.228 82.286 143.686 M221.143 143.736 L 221.143 147.187 224.995 147.094 L 228.848 147.000 229.765 146.082 C 230.552 145.295,230.681 144.963,230.681 143.737 C 230.681 141.059,229.282 140.286,224.438 140.286 L 221.143 140.286 221.143 143.736 M301.143 147.683 L 301.143 155.143 303.272 155.143 C 310.181 155.143,313.861 151.125,312.187 145.407 C 311.149 141.858,309.063 140.508,304.357 140.339 L 301.143 140.224 301.143 147.683 M57.158 145.730 C 55.363 150.117,55.199 149.754,58.925 149.653 L 61.925 149.571 60.444 145.934 C 59.630 143.934,58.900 142.233,58.822 142.155 C 58.743 142.077,57.995 143.685,57.158 145.730 M276.008 145.722 C 274.220 150.117,274.057 149.754,277.776 149.653 L 280.769 149.571 279.305 145.944 C 278.500 143.949,277.769 142.246,277.682 142.158 C 277.594 142.070,276.841 143.674,276.008 145.722 M356.571 157.143 L 356.571 160.000 353.571 160.000 L 350.571 160.000 350.571 157.333 C 350.571 154.081,350.358 154.286,353.762 154.286 L 356.571 154.286 356.571 157.143 M140.857 326.000 L 140.857 350.286 154.429 350.286 L 168.000 350.286 168.000 326.000 L 168.000 301.714 154.429 301.714 L 140.857 301.714 140.857 326.000 M77.429 328.857 L 77.429 350.286 91.000 350.286 L 104.571 350.286 104.571 328.857 L 104.571 307.429 91.000 307.429 L 77.429 307.429 77.429 328.857 M109.143 331.000 L 109.143 350.286 122.714 350.286 L 136.286 350.286 136.286 331.000 L 136.286 311.714 122.714 311.714 L 109.143 311.714 109.143 331.000 M158.051 320.295 C 159.301 320.642,161.656 322.190,162.188 323.016 C 162.539 323.559,162.434 323.701,160.784 324.924 L 159.000 326.244 158.286 325.569 C 154.693 322.172,149.571 326.255,151.533 330.951 C 152.705 333.757,156.587 334.351,158.675 332.043 L 159.206 331.457 160.817 332.631 C 161.703 333.276,162.479 333.845,162.540 333.895 C 162.933 334.212,160.864 336.102,159.257 336.893 C 152.875 340.034,145.931 335.429,146.342 328.327 C 146.681 322.479,152.224 318.677,158.051 320.295 M46.011 320.632 C 46.017 320.834,47.270 324.729,48.796 329.286 L 51.571 337.571 53.678 337.571 L 55.784 337.571 57.392 332.950 C 58.277 330.408,59.072 328.257,59.161 328.170 C 59.299 328.034,60.664 331.700,62.208 336.357 L 62.658 337.714 64.734 337.714 L 66.810 337.714 69.590 329.357 C 71.119 324.761,72.431 320.834,72.506 320.631 C 72.612 320.344,72.084 320.281,70.113 320.346 L 67.585 320.429 66.272 324.857 C 65.549 327.293,64.892 329.479,64.812 329.714 C 64.732 329.950,63.927 327.925,63.024 325.214 L 61.381 320.286 59.286 320.286 L 57.190 320.286 55.548 325.214 C 54.644 327.925,53.840 329.950,53.760 329.714 C 53.681 329.479,53.019 327.293,52.289 324.857 L 50.963 320.429 48.481 320.346 C 46.600 320.283,46.003 320.353,46.011 320.632 M91.000 324.749 L 94.429 329.206 94.507 324.746 L 94.586 320.286 97.007 320.286 L 99.429 320.286 99.429 328.869 L 99.429 337.453 97.225 337.369 L 95.022 337.286 91.835 333.191 C 87.256 327.309,87.714 327.353,87.714 332.796 L 87.714 337.429 85.429 337.429 L 83.143 337.429 83.143 328.857 L 83.143 320.286 85.357 320.289 L 87.571 320.292 91.000 324.749 M121.039 323.337 L 122.792 326.378 124.584 323.332 L 126.376 320.286 129.031 320.286 L 131.685 320.286 128.418 325.500 L 125.150 330.714 125.146 334.071 L 125.143 337.429 122.714 337.429 L 120.286 337.429 120.286 334.068 L 120.286 330.707 117.143 325.649 C 115.414 322.866,114.000 320.522,114.000 320.438 C 114.000 320.354,115.189 320.288,116.643 320.291 L 119.286 320.296 121.039 323.337 M45.714 346.140 L 45.714 350.286 59.294 350.286 L 72.873 350.286 72.794 346.214 L 72.714 342.143 59.214 342.069 L 45.714 341.994 45.714 346.140 " stroke="none" fill="#dc1c3c" fill-rule="evenodd"></path><path id="path1" d="M284.154 44.301 C 271.195 46.318,263.099 58.925,266.521 71.755 C 271.056 88.753,293.100 93.188,303.910 79.278 L 304.804 78.127 300.616 75.088 L 296.429 72.048 294.709 73.699 C 287.186 80.919,277.005 75.811,277.477 65.053 C 277.907 55.270,287.555 51.206,294.556 57.860 L 296.143 59.369 299.431 56.756 C 301.240 55.319,303.158 53.801,303.694 53.383 L 304.669 52.623 302.120 50.089 C 297.384 45.381,290.815 43.264,284.154 44.301 M52.571 65.046 C 47.936 76.305,44.050 85.757,43.936 86.050 C 43.737 86.561,43.970 86.580,49.646 86.506 L 55.565 86.429 56.973 82.786 L 58.381 79.143 66.262 79.145 L 74.143 79.147 75.584 82.788 L 77.024 86.429 83.070 86.506 L 89.116 86.583 87.487 82.626 C 86.590 80.450,82.707 71.000,78.857 61.626 L 71.857 44.583 66.429 44.579 L 61.000 44.575 52.571 65.046 M321.143 61.626 C 317.293 71.000,313.411 80.447,312.516 82.621 L 310.889 86.571 316.801 86.566 L 322.714 86.560 324.140 82.852 L 325.565 79.143 333.448 79.143 L 341.331 79.143 342.774 82.786 L 344.218 86.429 350.245 86.506 C 356.029 86.580,356.263 86.561,356.064 86.049 C 355.950 85.756,352.064 76.305,347.429 65.047 L 339.000 44.578 333.571 44.581 L 328.143 44.583 321.143 61.626 M98.000 65.714 L 98.000 86.571 103.425 86.571 L 108.851 86.571 108.925 74.668 L 109.000 62.765 114.129 70.811 C 116.950 75.236,119.350 78.857,119.464 78.857 C 119.577 78.857,121.962 75.258,124.763 70.860 L 129.857 62.863 129.932 74.717 L 130.006 86.571 135.575 86.571 L 141.143 86.571 141.143 65.714 L 141.143 44.857 135.214 44.865 L 129.286 44.873 125.072 51.937 C 122.755 55.821,120.567 59.481,120.210 60.068 L 119.561 61.136 114.709 53.005 L 109.857 44.874 103.929 44.866 L 98.000 44.857 98.000 65.714 M153.143 65.714 L 153.143 86.571 169.714 86.571 L 186.286 86.571 186.286 81.714 L 186.286 76.857 175.286 76.857 L 164.286 76.857 164.286 73.571 L 164.286 70.286 174.143 70.286 L 184.000 70.286 184.000 65.714 L 184.000 61.143 174.133 61.143 L 164.267 61.143 164.348 57.929 L 164.429 54.714 175.214 54.639 L 186.000 54.565 186.000 49.711 L 186.000 44.857 169.571 44.857 L 153.143 44.857 153.143 65.714 M196.857 65.690 L 196.857 86.571 202.429 86.571 L 208.000 86.571 208.000 80.286 L 208.000 74.000 210.529 74.000 L 213.057 74.000 217.124 80.286 L 221.190 86.571 227.619 86.571 C 231.155 86.571,234.005 86.472,233.952 86.351 C 233.900 86.230,231.747 82.990,229.169 79.152 C 226.464 75.126,224.623 72.126,224.818 72.061 C 233.069 69.310,235.631 55.890,229.147 49.390 C 225.287 45.522,223.227 45.076,208.500 44.926 L 196.857 44.808 196.857 65.690 M243.714 65.714 L 243.714 86.571 249.286 86.571 L 254.857 86.571 254.857 65.714 L 254.857 44.857 249.286 44.857 L 243.714 44.857 243.714 65.714 M218.212 55.290 C 221.648 56.311,222.802 60.478,220.389 63.149 C 218.937 64.757,217.981 64.986,212.714 64.994 L 208.143 65.000 208.065 59.929 L 207.987 54.857 212.370 54.857 C 215.456 54.857,217.185 54.985,218.212 55.290 M68.571 64.071 C 69.717 67.096,70.715 69.732,70.787 69.929 C 70.889 70.205,69.873 70.286,66.292 70.286 C 63.619 70.286,61.707 70.175,61.762 70.024 C 63.145 66.230,66.188 58.578,66.314 58.575 C 66.408 58.573,67.424 61.046,68.571 64.071 M335.814 64.283 C 337.016 67.425,338.000 70.060,338.000 70.140 C 338.000 70.220,335.932 70.286,333.405 70.286 C 330.877 70.286,328.852 70.177,328.905 70.044 C 328.957 69.912,329.964 67.279,331.143 64.193 C 332.321 61.108,333.363 58.581,333.457 58.578 C 333.551 58.574,334.611 61.142,335.814 64.283 M0.000 220.714 L 0.000 241.714 200.000 241.714 L 400.000 241.714 400.000 220.714 L 400.000 199.714 200.000 199.714 L 0.000 199.714 0.000 220.714 M58.964 211.071 L 61.075 215.286 65.441 215.927 C 67.842 216.280,69.875 216.637,69.960 216.722 C 70.044 216.806,68.951 218.061,67.530 219.509 C 63.979 223.130,63.652 224.166,64.529 229.030 C 65.273 233.162,65.452 233.031,61.737 231.064 C 57.354 228.743,56.154 228.748,51.805 231.103 C 50.105 232.024,48.669 232.740,48.614 232.694 C 48.560 232.648,48.863 230.528,49.288 227.983 L 50.062 223.357 46.722 220.007 L 43.381 216.658 46.476 216.185 C 48.179 215.924,49.742 215.712,49.950 215.713 C 51.311 215.719,53.690 213.112,55.170 209.997 C 55.990 208.270,56.704 206.857,56.757 206.857 C 56.810 206.857,57.803 208.754,58.964 211.071 M130.378 211.060 L 132.459 215.263 136.851 215.920 C 139.267 216.282,141.311 216.644,141.393 216.726 C 141.475 216.808,140.368 218.061,138.932 219.509 C 135.415 223.059,135.061 224.203,135.954 229.131 C 136.684 233.159,136.874 233.027,133.166 231.064 C 128.822 228.763,127.509 228.755,123.378 231.000 C 120.587 232.517,120.000 232.761,120.000 232.405 C 120.000 232.313,120.336 230.240,120.747 227.799 L 121.493 223.359 118.151 220.009 L 114.810 216.658 117.905 216.185 C 119.607 215.924,121.170 215.712,121.379 215.713 C 122.739 215.719,125.119 213.112,126.598 209.997 C 127.418 208.270,128.136 206.857,128.193 206.857 C 128.250 206.857,129.233 208.748,130.378 211.060 M201.806 211.060 L 203.888 215.263 208.280 215.920 C 210.696 216.282,212.740 216.644,212.822 216.726 C 212.904 216.808,211.796 218.061,210.361 219.509 C 206.859 223.043,206.507 224.179,207.371 229.143 C 208.073 233.177,208.295 233.023,204.595 231.064 C 200.251 228.763,198.937 228.755,194.806 231.000 C 192.016 232.517,191.429 232.761,191.429 232.405 C 191.429 232.313,191.765 230.240,192.175 227.799 L 192.922 223.359 189.580 220.009 L 186.238 216.658 189.333 216.185 C 191.036 215.924,192.599 215.712,192.807 215.713 C 194.168 215.719,196.548 213.112,198.027 209.997 C 198.847 208.270,199.565 206.857,199.621 206.857 C 199.678 206.857,200.661 208.748,201.806 211.060 M273.225 211.058 L 275.286 215.259 279.693 215.918 C 282.118 216.281,284.168 216.644,284.250 216.726 C 284.332 216.808,283.227 218.061,281.795 219.509 C 278.116 223.231,277.589 225.912,279.326 232.071 C 279.548 232.857,278.993 232.683,275.924 231.000 C 273.235 229.525,272.938 229.429,271.092 229.429 C 269.250 229.429,268.944 229.528,266.235 231.000 C 263.444 232.517,262.857 232.761,262.857 232.405 C 262.857 232.313,263.193 230.240,263.604 227.799 L 264.350 223.359 261.009 220.009 L 257.667 216.658 260.762 216.185 C 262.464 215.924,264.028 215.712,264.236 215.713 C 265.579 215.718,267.917 213.156,269.432 210.020 C 270.272 208.281,271.005 206.857,271.062 206.857 C 271.118 206.857,272.091 208.748,273.225 211.058 M344.653 211.058 L 346.714 215.259 351.122 215.918 C 353.546 216.281,355.597 216.644,355.679 216.726 C 355.761 216.808,354.654 218.061,353.220 219.509 C 349.541 223.225,349.004 225.959,350.753 232.071 C 350.978 232.858,350.421 232.682,347.353 231.000 C 344.663 229.525,344.366 229.429,342.521 229.429 C 340.679 229.429,340.373 229.528,337.664 231.000 C 334.873 232.517,334.286 232.761,334.286 232.405 C 334.286 232.313,334.622 230.240,335.032 227.799 L 335.779 223.359 332.437 220.009 L 329.095 216.658 332.190 216.185 C 333.893 215.924,335.456 215.712,335.665 215.713 C 337.007 215.718,339.346 213.156,340.860 210.020 C 341.700 208.281,342.434 206.857,342.490 206.857 C 342.546 206.857,343.520 208.748,344.653 211.058 M93.092 267.428 L 95.286 274.024 96.833 273.941 L 98.380 273.857 99.445 270.672 C 101.024 265.951,100.866 265.978,102.348 270.186 L 103.642 273.857 105.178 273.941 L 106.714 274.024 108.908 267.428 L 111.102 260.832 109.222 260.916 L 107.342 261.000 106.314 264.499 C 105.748 266.423,105.218 267.998,105.134 267.999 C 105.051 268.000,104.464 266.425,103.830 264.500 L 102.677 261.000 101.081 260.915 L 99.485 260.830 98.284 264.433 C 97.624 266.415,97.000 267.955,96.899 267.855 C 96.797 267.756,96.261 266.173,95.707 264.338 L 94.700 261.000 92.799 260.916 L 90.898 260.832 93.092 267.428 M113.714 267.286 L 113.714 273.714 115.429 273.714 L 117.143 273.714 117.143 267.286 L 117.143 260.857 115.429 260.857 L 113.714 260.857 113.714 267.286 M120.000 262.429 L 120.000 264.000 121.857 264.000 L 123.714 264.000 123.714 268.857 L 123.714 273.714 125.571 273.714 L 127.429 273.714 127.429 268.857 L 127.429 264.000 129.286 264.000 L 131.143 264.000 131.143 262.429 L 131.143 260.857 125.571 260.857 L 120.000 260.857 120.000 262.429 M134.000 267.286 L 134.000 273.714 135.714 273.714 L 137.429 273.714 137.429 271.286 L 137.429 268.857 139.857 268.857 L 142.286 268.857 142.286 271.286 L 142.286 273.714 144.000 273.714 L 145.714 273.714 145.714 267.286 L 145.714 260.857 144.000 260.857 L 142.286 260.857 142.286 263.286 L 142.286 265.714 139.857 265.714 L 137.429 265.714 137.429 263.286 L 137.429 260.857 135.714 260.857 L 134.000 260.857 134.000 267.286 M155.143 267.286 L 155.143 273.714 159.357 273.708 C 164.400 273.701,165.726 273.298,166.456 271.551 C 167.163 269.857,166.665 268.400,165.040 267.409 L 164.223 266.911 164.850 266.575 C 166.213 265.846,166.550 263.434,165.462 262.185 C 164.466 261.041,163.612 260.857,159.300 260.857 L 155.143 260.857 155.143 267.286 M169.429 267.286 L 169.429 273.714 171.130 273.714 L 172.831 273.714 172.916 271.786 C 173.043 268.877,173.991 268.849,175.885 271.697 L 177.227 273.714 179.185 273.714 C 181.520 273.714,181.481 273.889,179.711 271.369 L 178.279 269.330 179.038 268.832 C 181.947 266.924,181.300 262.055,178.016 261.143 C 177.457 260.987,175.296 260.860,173.214 260.859 L 169.429 260.857 169.429 267.286 M184.000 267.286 L 184.000 273.714 185.714 273.714 L 187.429 273.714 187.429 267.286 L 187.429 260.857 185.714 260.857 L 184.000 260.857 184.000 267.286 M192.804 266.778 C 191.439 270.043,190.236 272.939,190.131 273.214 C 189.960 273.659,190.144 273.714,191.783 273.714 L 193.628 273.714 194.077 272.571 L 194.525 271.429 197.077 271.429 L 199.628 271.429 200.077 272.571 L 200.525 273.714 202.403 273.714 L 204.281 273.714 203.852 272.643 C 203.616 272.054,202.415 269.193,201.182 266.286 L 198.941 261.000 197.114 260.921 L 195.286 260.842 192.804 266.778 M206.571 267.286 L 206.571 273.714 208.420 273.714 L 210.268 273.714 210.348 270.277 L 210.429 266.840 213.090 270.277 L 215.751 273.714 217.304 273.714 L 218.857 273.714 218.857 267.286 L 218.857 260.857 217.143 260.857 L 215.429 260.857 215.420 264.214 L 215.412 267.571 214.634 266.700 C 214.207 266.221,212.988 264.710,211.926 263.343 L 209.996 260.857 208.284 260.857 L 206.571 260.857 206.571 267.286 M228.286 267.286 L 228.286 273.714 233.286 273.714 L 238.286 273.714 238.286 272.286 L 238.286 270.857 235.143 270.857 L 232.000 270.857 232.000 265.857 L 232.000 260.857 230.143 260.857 L 228.286 260.857 228.286 267.286 M240.857 267.286 L 240.857 273.714 246.143 273.714 L 251.429 273.714 251.429 272.286 L 251.429 270.857 247.857 270.857 L 244.286 270.857 244.286 269.714 L 244.286 268.571 247.429 268.571 L 250.571 268.571 250.571 267.295 L 250.571 266.019 247.500 265.938 L 244.429 265.857 244.340 264.786 L 244.251 263.714 247.697 263.714 L 251.143 263.714 251.143 262.286 L 251.143 260.857 246.000 260.857 L 240.857 260.857 240.857 267.286 M254.286 267.286 L 254.286 273.714 256.000 273.714 L 257.714 273.714 257.714 271.286 L 257.714 268.857 260.143 268.857 L 262.571 268.857 262.571 271.286 L 262.571 273.714 264.286 273.714 L 266.000 273.714 266.000 267.286 L 266.000 260.857 264.286 260.857 L 262.571 260.857 262.571 263.286 L 262.571 265.714 260.143 265.714 L 257.714 265.714 257.714 263.286 L 257.714 260.857 256.000 260.857 L 254.286 260.857 254.286 267.286 M269.429 267.286 L 269.429 273.714 271.130 273.714 L 272.831 273.714 272.916 271.786 C 273.042 268.901,273.929 268.875,275.808 271.700 L 277.147 273.714 279.178 273.714 L 281.209 273.714 280.708 272.929 C 280.432 272.496,279.777 271.535,279.251 270.792 L 278.295 269.440 279.484 268.332 C 280.576 267.313,280.681 267.087,280.780 265.540 C 281.012 261.941,279.317 260.873,273.357 260.863 L 269.429 260.857 269.429 267.286 M283.714 267.286 L 283.714 273.714 289.000 273.714 L 294.286 273.714 294.286 272.295 L 294.286 270.875 290.786 270.795 L 287.286 270.714 287.286 269.714 L 287.286 268.714 290.357 268.633 L 293.429 268.552 293.429 267.286 L 293.429 266.019 290.357 265.938 L 287.286 265.857 287.286 264.857 L 287.286 263.857 290.786 263.777 L 294.286 263.697 294.286 262.277 L 294.286 260.857 289.000 260.857 L 283.714 260.857 283.714 267.286 M297.143 267.286 L 297.143 273.714 298.844 273.714 L 300.545 273.714 300.630 271.786 C 300.757 268.877,301.706 268.849,303.599 271.697 L 304.941 273.714 306.899 273.714 C 309.235 273.714,309.195 273.889,307.428 271.373 L 306.000 269.339 306.958 268.688 C 309.678 266.839,308.895 262.022,305.731 261.143 C 305.172 260.987,303.011 260.860,300.929 260.859 L 297.143 260.857 297.143 267.286 M162.119 263.888 C 163.666 264.481,162.306 266.000,160.229 266.000 L 158.571 266.000 158.571 264.857 L 158.571 263.714 160.119 263.714 C 160.971 263.714,161.871 263.792,162.119 263.888 M176.422 264.049 C 178.736 265.103,177.178 267.299,174.263 267.090 L 173.000 267.000 172.911 265.753 C 172.762 263.688,174.151 263.014,176.422 264.049 M276.231 264.024 C 278.770 264.909,277.363 267.143,274.267 267.143 L 272.857 267.143 272.857 265.619 C 272.857 263.595,273.767 263.165,276.231 264.024 M304.136 264.049 C 306.451 265.103,304.892 267.299,301.977 267.090 L 300.714 267.000 300.625 265.753 C 300.477 263.688,301.866 263.014,304.136 264.049 M197.683 266.357 C 198.777 268.913,198.789 268.857,197.162 268.857 C 195.504 268.857,195.510 268.872,196.325 266.740 C 197.058 264.826,197.031 264.834,197.683 266.357 M162.691 268.745 C 163.224 268.949,163.290 270.024,162.800 270.514 C 162.601 270.714,161.644 270.857,160.514 270.857 L 158.571 270.857 158.571 269.714 L 158.571 268.571 160.405 268.571 C 161.414 268.571,162.442 268.649,162.691 268.745 " stroke="none" fill="#1c64dc" fill-rule="evenodd"></path><path id="path2" d="M0.000 54.286 L 0.000 108.571 200.000 108.571 L 400.000 108.571 400.000 54.286 L 400.000 0.000 200.000 0.000 L 0.000 0.000 0.000 54.286 M292.226 44.446 C 295.740 45.157,299.360 47.067,301.839 49.518 C 305.158 52.799,305.262 52.306,300.443 56.136 C 295.576 60.005,296.345 59.781,294.423 57.889 C 286.184 49.780,274.619 58.306,278.131 69.900 C 280.371 77.294,289.163 79.219,294.717 73.531 C 296.569 71.634,295.906 71.470,300.740 75.023 C 305.562 78.569,305.480 78.026,301.746 81.720 C 297.518 85.902,293.552 87.474,287.143 87.506 C 260.864 87.638,257.782 48.709,283.714 44.202 C 285.453 43.900,290.201 44.036,292.226 44.446 M72.509 45.929 C 74.922 51.584,89.143 86.326,89.143 86.565 C 89.143 86.772,87.215 86.844,83.084 86.791 L 77.024 86.714 75.584 83.074 L 74.143 79.433 66.286 79.432 L 58.429 79.431 57.000 83.072 L 55.571 86.714 49.518 86.791 L 43.464 86.868 44.134 85.220 C 44.503 84.313,48.301 75.086,52.575 64.714 C 56.849 54.343,60.458 45.568,60.594 45.214 C 60.840 44.578,60.902 44.571,66.386 44.571 L 71.930 44.571 72.509 45.929 M347.840 65.714 L 356.486 86.714 350.608 86.792 C 343.463 86.886,344.387 87.325,342.701 83.032 L 341.286 79.430 333.429 79.430 L 325.571 79.431 324.150 83.144 L 322.729 86.857 316.793 86.857 C 312.828 86.857,310.857 86.757,310.857 86.556 C 310.857 86.316,325.204 51.272,327.492 45.923 L 328.075 44.560 333.635 44.637 L 339.194 44.714 347.840 65.714 M114.440 52.357 C 116.925 56.482,119.110 60.084,119.296 60.362 C 119.586 60.798,120.289 59.771,124.426 52.862 L 129.219 44.857 135.324 44.857 L 141.429 44.857 141.429 65.857 L 141.429 86.857 135.717 86.857 L 130.006 86.857 129.932 74.950 L 129.857 63.042 124.746 71.093 C 121.935 75.520,119.556 79.143,119.460 79.143 C 119.364 79.142,117.036 75.607,114.286 71.287 L 109.286 63.431 109.211 75.144 L 109.137 86.857 103.425 86.857 L 97.714 86.857 97.714 65.857 L 97.714 44.857 103.817 44.857 L 109.921 44.857 114.440 52.357 M186.000 49.857 L 186.000 54.857 175.286 54.857 L 164.571 54.857 164.571 58.000 L 164.571 61.143 174.286 61.143 L 184.000 61.143 184.000 65.714 L 184.000 70.286 174.286 70.286 L 164.571 70.286 164.571 73.571 L 164.571 76.857 175.429 76.857 L 186.286 76.857 186.286 81.857 L 186.286 86.857 169.714 86.857 L 153.143 86.857 153.143 65.857 L 153.143 44.857 169.571 44.857 L 186.000 44.857 186.000 49.857 M221.369 45.296 C 234.506 47.916,237.566 64.943,226.071 71.455 C 224.582 72.299,224.229 71.497,229.697 79.689 C 232.221 83.469,234.286 86.629,234.286 86.710 C 234.286 86.791,231.349 86.857,227.760 86.857 L 221.235 86.857 217.114 80.500 L 212.993 74.143 210.639 74.060 L 208.286 73.977 208.286 80.417 L 208.286 86.857 202.429 86.857 L 196.571 86.857 196.571 65.857 L 196.571 44.857 207.869 44.857 C 216.887 44.857,219.611 44.946,221.369 45.296 M255.143 65.857 L 255.143 86.857 249.286 86.857 L 243.429 86.857 243.429 65.857 L 243.429 44.857 249.286 44.857 L 255.143 44.857 255.143 65.857 M208.286 59.876 L 208.286 64.895 213.071 64.805 C 219.659 64.680,221.112 63.897,221.370 60.328 C 221.673 56.142,219.430 54.862,211.786 54.859 L 208.286 54.857 208.286 59.876 M66.186 59.073 C 65.918 59.506,62.000 69.766,62.000 70.033 C 62.000 70.172,63.929 70.286,66.286 70.286 C 69.133 70.286,70.571 70.183,70.571 69.981 C 70.571 69.081,66.405 58.719,66.186 59.073 M333.176 59.460 C 331.063 64.838,329.143 69.883,329.143 70.061 C 329.143 70.185,331.071 70.286,333.429 70.286 C 336.469 70.286,337.714 70.190,337.714 69.957 C 337.714 69.627,333.755 59.097,333.553 58.889 C 333.493 58.828,333.324 59.085,333.176 59.460 M52.842 143.357 C 50.920 147.875,48.539 153.472,47.550 155.796 L 45.753 160.020 48.517 159.939 L 51.281 159.857 52.283 157.429 C 52.835 156.093,53.390 154.839,53.517 154.643 C 53.688 154.379,55.080 154.286,58.838 154.286 L 63.928 154.286 65.085 157.071 L 66.242 159.857 68.978 159.939 C 70.483 159.984,71.714 159.924,71.714 159.805 C 71.714 159.687,69.375 154.089,66.515 147.366 L 61.316 135.143 58.827 135.143 L 56.338 135.143 52.842 143.357 M151.131 143.203 C 149.693 147.648,148.411 151.396,148.284 151.531 C 148.057 151.771,147.629 150.494,144.543 140.357 L 143.042 135.429 140.235 135.429 C 138.692 135.429,137.430 135.525,137.433 135.643 C 137.435 135.761,139.271 141.257,141.514 147.857 L 145.591 159.857 148.010 159.936 L 150.429 160.015 153.127 152.151 C 154.612 147.825,155.897 144.286,155.984 144.287 C 156.072 144.288,157.355 147.829,158.836 152.155 L 161.529 160.021 163.944 159.939 L 166.359 159.857 170.283 148.286 C 172.442 141.921,174.300 136.420,174.412 136.061 L 174.617 135.407 171.815 135.489 L 169.014 135.571 166.578 143.484 C 165.239 147.836,164.055 151.481,163.948 151.584 C 163.841 151.686,162.549 148.061,161.078 143.528 L 158.402 135.286 156.074 135.203 L 153.746 135.120 151.131 143.203 M271.700 143.357 C 269.777 147.875,267.398 153.468,266.412 155.786 L 264.619 160.000 267.381 159.999 L 270.143 159.998 271.113 157.499 C 272.469 154.006,271.894 154.286,277.723 154.286 L 282.804 154.286 283.682 156.395 C 284.165 157.556,284.688 158.841,284.845 159.253 C 285.123 159.985,290.571 160.497,290.571 159.792 C 290.571 159.677,288.234 154.084,285.378 147.363 L 280.184 135.143 277.689 135.143 L 275.195 135.143 271.700 143.357 M350.653 135.557 C 349.140 136.030,347.196 137.164,346.355 138.065 L 345.710 138.755 347.297 140.509 L 348.883 142.262 350.143 141.300 C 353.150 139.005,357.429 139.613,357.429 142.336 C 357.429 144.166,355.842 145.304,352.861 145.616 C 351.916 145.715,351.143 145.849,351.143 145.915 C 351.143 146.174,351.744 150.183,351.873 150.786 C 351.997 151.364,352.180 151.429,353.689 151.429 C 355.427 151.429,355.714 151.226,355.714 149.997 C 355.714 149.607,356.107 149.353,357.214 149.025 C 363.124 147.273,364.857 140.592,360.365 136.877 C 358.390 135.243,353.698 134.606,350.653 135.557 M76.571 147.697 L 76.571 160.000 79.286 160.000 L 82.000 160.000 82.000 156.000 L 82.000 152.000 84.214 152.007 L 86.429 152.015 89.072 156.007 L 91.716 160.000 94.844 160.000 L 97.972 160.000 95.182 155.929 C 93.647 153.689,92.298 151.701,92.185 151.511 C 92.053 151.289,92.380 150.961,93.098 150.594 C 97.585 148.305,98.615 141.131,94.955 137.658 C 92.961 135.766,92.018 135.580,83.929 135.482 L 76.571 135.393 76.571 147.697 M103.143 147.714 L 103.143 160.000 112.429 160.000 L 121.714 160.000 121.714 157.571 L 121.714 155.143 115.000 155.143 L 108.286 155.143 108.286 152.571 L 108.286 150.000 114.143 150.000 L 120.000 150.000 120.000 147.571 L 120.000 145.143 114.132 145.143 L 108.263 145.143 108.346 142.643 L 108.429 140.143 115.071 140.066 L 121.714 139.989 121.714 137.709 L 121.714 135.429 112.429 135.429 L 103.143 135.429 103.143 147.714 M179.714 147.714 L 179.714 160.000 189.000 160.000 L 198.286 160.000 198.286 157.571 L 198.286 155.143 191.571 155.143 L 184.857 155.143 184.857 152.571 L 184.857 150.000 190.714 150.000 L 196.571 150.000 196.571 147.571 L 196.571 145.143 190.703 145.143 L 184.835 145.143 184.917 142.643 L 185.000 140.143 191.643 140.066 L 198.286 139.989 198.286 137.709 L 198.286 135.429 189.000 135.429 L 179.714 135.429 179.714 147.714 M215.714 147.714 L 215.714 160.000 218.429 160.000 L 221.143 160.000 221.143 156.000 L 221.143 152.000 223.285 152.000 L 225.427 152.000 228.070 155.993 L 230.714 159.985 233.786 159.993 C 235.475 159.997,236.857 159.937,236.857 159.859 C 236.857 159.782,235.571 157.852,234.000 155.571 C 230.648 150.706,230.856 151.365,232.389 150.467 C 238.323 146.989,237.319 137.803,230.793 135.864 C 229.656 135.527,227.788 135.429,222.520 135.429 L 215.714 135.429 215.714 147.714 M242.286 147.714 L 242.286 160.000 251.571 160.000 L 260.857 160.000 260.857 157.571 L 260.857 155.143 254.143 155.143 L 247.429 155.143 247.429 152.571 L 247.429 150.000 253.286 150.000 L 259.143 150.000 259.143 147.571 L 259.143 145.143 253.286 145.143 L 247.429 145.143 247.429 142.571 L 247.429 140.000 254.143 140.000 L 260.857 140.000 260.857 137.714 L 260.857 135.429 251.571 135.429 L 242.286 135.429 242.286 147.714 M295.429 147.714 L 295.429 160.000 300.929 159.995 C 304.599 159.992,307.072 159.854,308.363 159.580 C 321.146 156.871,321.620 139.194,309.000 135.818 C 308.022 135.556,305.657 135.434,301.500 135.432 L 295.429 135.429 295.429 147.714 M319.929 136.357 C 320.235 136.868,322.369 140.252,324.671 143.878 L 328.857 150.471 328.857 155.235 L 328.857 160.000 331.429 160.000 L 334.000 160.000 334.000 155.131 L 334.000 150.263 338.705 142.917 L 343.410 135.571 340.654 135.489 C 337.122 135.383,337.699 134.931,334.419 140.386 C 332.853 142.992,331.507 145.124,331.429 145.124 C 331.350 145.123,330.006 142.942,328.442 140.276 L 325.599 135.429 322.486 135.429 L 319.372 135.429 319.929 136.357 M89.911 140.661 C 92.698 142.126,92.238 146.288,89.196 147.133 C 88.617 147.294,86.761 147.426,85.071 147.427 L 82.000 147.429 82.000 143.905 C 82.000 141.967,82.096 140.282,82.214 140.161 C 82.626 139.737,88.935 140.147,89.911 140.661 M229.067 140.666 C 231.586 141.994,231.409 145.674,228.767 146.873 C 227.823 147.302,226.895 147.417,224.357 147.422 L 221.143 147.429 221.143 143.680 L 221.143 139.931 224.643 140.055 C 227.198 140.145,228.392 140.310,229.067 140.666 M308.723 140.992 C 313.930 143.539,313.925 151.613,308.714 154.372 C 307.788 154.862,306.936 154.998,304.214 155.090 L 300.857 155.203 300.857 147.792 C 300.857 143.716,300.954 140.280,301.071 140.158 C 301.600 139.606,307.121 140.208,308.723 140.992 M60.533 145.824 C 62.293 150.183,62.506 149.752,58.633 149.653 L 55.476 149.571 57.072 145.634 C 57.950 143.469,58.753 141.797,58.857 141.920 C 58.961 142.042,59.715 143.799,60.533 145.824 M279.390 145.824 C 281.150 150.183,281.363 149.752,277.490 149.653 L 274.334 149.571 275.936 145.641 C 276.818 143.479,277.621 141.808,277.722 141.927 C 277.822 142.046,278.573 143.799,279.390 145.824 M350.857 157.286 L 350.857 160.000 353.571 160.000 L 356.286 160.000 356.286 157.286 L 356.286 154.571 353.571 154.571 L 350.857 154.571 350.857 157.286 M0.000 194.143 L 0.000 199.429 200.000 199.429 L 400.000 199.429 400.000 194.143 L 400.000 188.857 200.000 188.857 L 0.000 188.857 0.000 194.143 M55.128 210.332 C 53.005 214.643,51.822 215.539,47.419 216.170 C 45.774 216.406,44.269 216.653,44.074 216.718 C 43.875 216.785,45.144 218.276,46.961 220.109 L 50.202 223.381 49.433 227.976 C 49.009 230.504,48.716 232.571,48.782 232.571 C 48.847 232.571,50.178 231.864,51.739 231.000 C 55.845 228.727,57.761 228.721,61.887 230.970 C 65.179 232.765,65.068 232.873,64.326 228.589 C 63.533 224.010,63.913 222.886,67.472 219.271 L 70.019 216.685 66.367 216.182 C 60.380 215.359,61.145 215.851,59.005 211.441 C 57.979 209.327,57.040 207.497,56.917 207.374 C 56.794 207.251,55.989 208.582,55.128 210.332 M126.522 210.375 C 124.348 214.741,123.218 215.565,118.510 216.216 C 116.737 216.461,115.233 216.705,115.167 216.759 C 115.102 216.812,116.531 218.316,118.343 220.101 L 121.637 223.346 120.864 227.959 C 120.439 230.496,120.145 232.571,120.210 232.571 C 120.276 232.571,121.607 231.864,123.168 231.000 C 127.274 228.727,129.190 228.721,133.315 230.970 C 134.870 231.818,136.178 232.419,136.221 232.306 C 136.264 232.193,136.053 230.583,135.752 228.729 C 134.977 223.955,135.330 222.897,138.915 219.256 L 141.476 216.656 139.810 216.461 C 138.893 216.354,136.843 216.065,135.255 215.818 L 132.367 215.369 130.417 211.384 C 129.344 209.191,128.387 207.348,128.290 207.288 C 128.193 207.228,127.397 208.617,126.522 210.375 M197.959 210.357 C 195.775 214.743,194.651 215.564,189.939 216.216 C 188.165 216.461,186.658 216.709,186.588 216.766 C 186.519 216.824,187.948 218.327,189.764 220.106 L 193.066 223.341 192.293 227.956 C 191.868 230.495,191.574 232.571,191.639 232.571 C 191.705 232.571,193.035 231.864,194.596 231.000 C 198.702 228.727,200.619 228.721,204.744 230.970 C 206.299 231.818,207.609 232.411,207.656 232.289 C 207.702 232.166,207.485 230.574,207.173 228.751 L 206.606 225.437 207.194 223.647 C 207.702 222.102,208.133 221.501,210.344 219.256 L 212.905 216.656 211.238 216.461 C 210.321 216.354,208.270 216.064,206.679 215.817 L 203.786 215.368 201.758 211.255 C 200.642 208.994,199.691 207.143,199.644 207.143 C 199.598 207.143,198.840 208.589,197.959 210.357 M269.417 210.316 C 267.253 214.719,266.079 215.575,261.303 216.231 C 259.486 216.480,258.000 216.761,258.000 216.854 C 258.000 216.948,259.461 218.447,261.247 220.186 L 264.493 223.349 263.721 227.960 C 263.296 230.496,263.002 232.571,263.068 232.571 C 263.133 232.571,264.464 231.864,266.025 231.000 C 270.124 228.731,271.915 228.729,276.190 230.992 C 277.846 231.868,279.142 232.402,279.141 232.206 C 279.140 232.014,278.890 230.413,278.587 228.648 L 278.034 225.439 278.623 223.648 C 279.130 222.105,279.562 221.501,281.748 219.280 L 284.286 216.704 279.798 216.055 C 277.330 215.698,275.288 215.379,275.259 215.346 C 275.231 215.313,274.292 213.454,273.173 211.214 C 272.054 208.975,271.103 207.143,271.058 207.143 C 271.014 207.143,270.275 208.571,269.417 210.316 M340.869 210.261 C 338.635 214.788,337.412 215.655,332.357 216.294 C 328.795 216.744,328.766 216.392,332.674 220.198 L 335.920 223.359 335.149 227.965 C 334.724 230.499,334.431 232.571,334.496 232.571 C 334.562 232.571,335.893 231.864,337.454 231.000 C 341.553 228.731,343.343 228.729,347.618 230.992 C 349.274 231.868,350.571 232.402,350.570 232.206 C 350.568 232.014,350.319 230.413,350.015 228.648 L 349.463 225.439 350.051 223.648 C 350.559 222.102,350.990 221.501,353.201 219.256 L 355.762 216.656 354.095 216.461 C 353.179 216.354,351.128 216.065,349.538 215.818 L 346.648 215.369 344.615 211.256 C 343.497 208.994,342.543 207.143,342.495 207.143 C 342.447 207.143,341.715 208.546,340.869 210.261 M0.000 321.000 L 0.000 400.000 200.000 400.000 L 400.000 400.000 400.000 321.000 L 400.000 242.000 200.000 242.000 L 0.000 242.000 0.000 321.000 M94.798 261.071 C 94.934 261.346,95.476 263.027,96.002 264.805 L 96.959 268.039 98.133 264.376 L 99.306 260.714 100.986 260.714 L 102.666 260.714 103.871 264.286 C 104.564 266.338,105.150 267.675,105.250 267.429 C 105.345 267.193,105.846 265.586,106.363 263.857 L 107.303 260.714 109.223 260.630 C 110.279 260.583,111.143 260.648,111.143 260.773 C 111.143 260.897,110.168 263.925,108.976 267.500 L 106.810 274.000 105.161 274.000 L 103.513 274.000 102.297 270.429 C 101.628 268.464,101.046 266.857,101.003 266.857 C 100.961 266.857,100.364 268.469,99.677 270.440 L 98.429 274.023 96.725 273.940 L 95.022 273.857 92.944 267.429 C 91.801 263.893,90.864 260.904,90.861 260.786 C 90.851 260.290,94.545 260.558,94.798 261.071 M117.286 267.286 L 117.286 273.857 115.429 273.857 L 113.571 273.857 113.494 267.578 C 113.401 260.004,113.252 260.522,115.496 260.629 L 117.286 260.714 117.286 267.286 M131.429 262.286 L 131.429 264.000 129.429 264.000 L 127.429 264.000 127.429 269.000 L 127.429 274.000 125.571 274.000 L 123.714 274.000 123.714 269.000 L 123.714 264.000 121.714 264.000 L 119.714 264.000 119.714 262.286 L 119.714 260.571 125.571 260.571 L 131.429 260.571 131.429 262.286 M137.489 263.071 L 137.571 265.571 139.786 265.655 L 142.000 265.738 142.000 263.155 L 142.000 260.571 143.857 260.571 L 145.714 260.571 145.714 267.286 L 145.714 274.000 143.857 274.000 L 142.000 274.000 142.000 271.417 L 142.000 268.833 139.786 268.917 L 137.571 269.000 137.489 271.500 L 137.406 274.000 135.560 274.000 L 133.714 274.000 133.714 267.286 L 133.714 260.571 135.560 260.571 L 137.406 260.571 137.489 263.071 M164.483 261.225 C 166.672 262.393,166.950 265.051,165.044 266.594 L 164.458 267.068 165.079 267.265 C 166.975 267.867,167.478 270.702,165.989 272.397 C 164.870 273.672,163.379 274.000,158.700 274.000 L 155.143 274.000 155.143 267.255 L 155.143 260.509 159.357 260.624 C 162.613 260.712,163.779 260.849,164.483 261.225 M178.742 261.355 C 181.552 262.825,181.955 266.440,179.545 268.556 L 178.553 269.427 179.991 271.558 C 181.771 274.196,181.825 274.000,179.328 274.000 L 177.227 274.000 175.897 272.000 C 174.843 270.415,174.419 270.000,173.855 270.000 C 173.164 270.000,173.143 270.059,173.143 272.000 L 173.143 274.000 171.286 274.000 L 169.429 274.000 169.429 267.254 L 169.429 260.508 173.500 260.625 C 176.963 260.725,177.746 260.834,178.742 261.355 M187.571 267.286 L 187.571 273.857 185.714 273.857 L 183.857 273.857 183.780 267.578 C 183.687 260.004,183.537 260.522,185.782 260.629 L 187.571 260.714 187.571 267.286 M201.629 266.988 C 204.824 274.534,204.764 274.000,202.418 274.000 L 200.551 274.000 200.000 272.714 L 199.449 271.429 197.049 271.429 L 194.649 271.429 194.158 272.714 L 193.667 274.000 191.660 274.000 C 190.171 274.000,189.689 273.908,189.792 273.643 C 189.869 273.446,191.133 270.420,192.602 266.917 L 195.273 260.548 197.122 260.631 L 198.972 260.714 201.629 266.988 M212.477 263.841 C 215.569 267.849,215.429 267.849,215.429 263.844 L 215.429 260.544 217.214 260.629 L 219.000 260.714 219.000 267.286 L 219.000 273.857 217.429 273.940 L 215.857 274.022 213.143 270.543 L 210.429 267.064 210.348 270.532 L 210.268 274.000 208.420 274.000 L 206.571 274.000 206.571 267.286 L 206.571 260.571 208.263 260.571 L 209.954 260.571 212.477 263.841 M232.000 265.571 L 232.000 270.571 235.143 270.571 L 238.286 270.571 238.286 272.286 L 238.286 274.000 233.286 274.000 L 228.286 274.000 228.286 267.286 L 228.286 260.571 230.143 260.571 L 232.000 260.571 232.000 265.571 M251.429 262.286 L 251.429 264.000 248.000 264.000 L 244.571 264.000 244.571 264.857 L 244.571 265.714 247.729 265.714 L 250.887 265.714 250.801 267.214 L 250.714 268.714 247.643 268.795 L 244.571 268.876 244.571 269.724 L 244.571 270.571 248.000 270.571 L 251.429 270.571 251.429 272.286 L 251.429 274.000 246.143 274.000 L 240.857 274.000 240.857 267.286 L 240.857 260.571 246.143 260.571 L 251.429 260.571 251.429 262.286 M257.940 263.214 L 258.022 265.714 260.143 265.714 L 262.263 265.714 262.346 263.214 L 262.429 260.714 264.286 260.714 L 266.143 260.714 266.143 267.286 L 266.143 273.857 264.286 273.857 L 262.429 273.857 262.346 271.357 L 262.263 268.857 260.143 268.857 L 258.022 268.857 257.940 271.357 L 257.857 273.857 256.000 273.857 L 254.143 273.857 254.066 267.578 C 253.973 260.004,253.823 260.522,256.068 260.629 L 257.857 260.714 257.940 263.214 M277.417 260.881 C 281.057 261.662,282.290 265.833,279.635 268.384 L 278.491 269.482 279.960 271.594 C 281.774 274.203,281.827 274.000,279.328 274.000 L 277.227 274.000 275.897 272.000 C 274.017 269.174,273.206 269.153,273.084 271.929 L 273.000 273.857 271.143 273.857 L 269.286 273.857 269.209 267.578 C 269.166 264.125,269.194 261.135,269.271 260.935 C 269.449 260.471,275.321 260.432,277.417 260.881 M294.286 262.286 L 294.286 264.000 290.857 264.000 L 287.429 264.000 287.429 264.857 L 287.429 265.714 290.571 265.714 L 293.714 265.714 293.714 267.286 L 293.714 268.857 290.571 268.857 L 287.429 268.857 287.429 269.714 L 287.429 270.571 290.857 270.571 L 294.286 270.571 294.286 272.286 L 294.286 274.000 289.000 274.000 L 283.714 274.000 283.714 267.286 L 283.714 260.571 289.000 260.571 L 294.286 260.571 294.286 262.286 M305.147 260.885 C 308.852 261.679,310.072 265.709,307.413 268.368 L 306.302 269.479 307.723 271.584 C 309.484 274.194,309.541 274.000,307.018 274.000 L 304.893 274.000 303.661 272.002 C 301.853 269.072,300.857 269.071,300.857 272.000 L 300.857 274.000 299.000 274.000 L 297.143 274.000 297.143 267.286 L 297.143 260.571 300.415 260.571 C 302.214 260.571,304.343 260.712,305.147 260.885 M158.857 264.857 C 158.857 266.105,159.976 266.430,161.839 265.721 C 163.550 265.071,162.416 263.714,160.162 263.714 L 158.857 263.714 158.857 264.857 M173.143 265.429 L 173.143 266.857 174.841 266.857 C 176.272 266.857,176.609 266.757,176.984 266.222 C 177.895 264.921,176.954 264.000,174.714 264.000 L 173.143 264.000 173.143 265.429 M273.143 265.429 L 273.143 266.857 274.800 266.857 C 276.647 266.857,277.143 266.545,277.143 265.381 C 277.143 264.373,276.454 264.000,274.590 264.000 L 273.143 264.000 273.143 265.429 M300.857 265.429 L 300.857 266.857 302.555 266.857 C 303.986 266.857,304.323 266.757,304.698 266.222 C 305.609 264.921,304.668 264.000,302.429 264.000 L 300.857 264.000 300.857 265.429 M196.367 266.915 L 195.790 268.429 196.925 268.518 C 198.379 268.632,198.402 268.596,197.826 267.107 C 197.115 265.269,197.000 265.254,196.367 266.915 M158.857 269.714 L 158.857 270.857 160.447 270.857 C 162.287 270.857,163.143 270.494,163.143 269.714 C 163.143 268.934,162.287 268.571,160.447 268.571 L 158.857 268.571 158.857 269.714 M168.000 325.857 L 168.000 350.286 154.429 350.286 L 140.857 350.286 140.857 325.857 L 140.857 301.429 154.429 301.429 L 168.000 301.429 168.000 325.857 M104.571 328.857 L 104.571 350.286 91.000 350.286 L 77.429 350.286 77.429 328.857 L 77.429 307.429 91.000 307.429 L 104.571 307.429 104.571 328.857 M136.286 331.000 L 136.286 350.286 122.714 350.286 L 109.143 350.286 109.143 331.000 L 109.143 311.714 122.714 311.714 L 136.286 311.714 136.286 331.000 M52.421 324.941 L 53.849 329.739 55.447 324.941 L 57.046 320.143 59.210 320.060 L 61.373 319.977 62.865 324.488 C 63.686 326.970,64.447 329.099,64.556 329.221 C 64.666 329.342,65.390 327.349,66.166 324.792 L 67.577 320.143 70.074 320.060 C 73.140 319.959,73.171 318.912,69.805 329.225 L 67.028 337.736 64.763 337.653 L 62.498 337.571 60.896 332.939 C 60.015 330.390,59.216 328.398,59.120 328.510 C 59.024 328.622,58.254 330.739,57.409 333.214 L 55.873 337.714 53.675 337.714 L 51.476 337.714 48.595 329.071 C 47.011 324.318,45.714 320.327,45.714 320.203 C 45.714 320.080,46.902 320.016,48.353 320.061 L 50.992 320.143 52.421 324.941 M152.843 320.389 C 146.381 322.132,144.140 330.426,148.857 335.143 C 152.128 338.414,157.716 338.598,161.111 335.546 C 162.787 334.039,162.801 334.139,160.734 332.715 L 159.166 331.635 158.160 332.518 C 155.693 334.684,152.235 333.680,151.299 330.526 C 149.855 325.666,154.832 322.176,158.476 325.492 L 159.095 326.055 160.690 324.850 C 162.610 323.401,162.602 323.470,161.004 322.063 C 158.935 320.242,155.784 319.596,152.843 320.389 M83.143 328.857 L 83.143 337.429 85.422 337.429 L 87.700 337.429 87.779 332.666 L 87.857 327.903 91.571 332.665 L 95.286 337.428 97.214 337.428 L 99.143 337.429 99.143 328.857 L 99.143 320.286 97.000 320.286 L 94.857 320.286 94.857 324.857 C 94.857 327.371,94.761 329.424,94.643 329.418 C 94.525 329.413,92.844 327.355,90.908 324.847 L 87.387 320.286 85.265 320.286 L 83.143 320.286 83.143 328.857 M114.187 320.643 C 114.308 320.839,115.794 323.241,117.489 325.981 L 120.571 330.961 120.571 334.195 L 120.571 337.429 122.857 337.429 L 125.143 337.429 125.143 333.998 L 125.143 330.568 127.954 326.070 C 129.500 323.596,130.919 321.282,131.107 320.929 L 131.449 320.286 128.939 320.296 L 126.429 320.306 124.714 323.293 C 122.639 326.909,123.002 326.910,120.857 323.286 L 119.082 320.286 116.524 320.286 C 114.551 320.286,114.017 320.367,114.187 320.643 M72.857 346.143 L 72.857 350.286 59.286 350.286 L 45.714 350.286 45.714 346.143 L 45.714 342.000 59.286 342.000 L 72.857 342.000 72.857 346.143 " stroke="none" fill="#fcfcfc" fill-rule="evenodd"></path><path id="path3" d="M289.214 44.197 C 289.489 44.269,289.939 44.269,290.214 44.197 C 290.489 44.125,290.264 44.066,289.714 44.066 C 289.164 44.066,288.939 44.125,289.214 44.197 M97.784 65.786 L 97.714 86.857 103.422 86.857 L 109.131 86.857 109.208 74.973 C 109.251 68.436,109.189 63.028,109.071 62.956 C 108.954 62.883,108.857 68.167,108.857 74.697 L 108.857 86.571 103.430 86.571 L 98.004 86.571 97.929 65.643 L 97.853 44.714 97.784 65.786 M141.143 65.708 L 141.143 86.559 135.500 86.643 L 129.857 86.727 135.643 86.792 L 141.429 86.857 141.429 65.857 C 141.429 54.307,141.364 44.857,141.286 44.857 C 141.207 44.857,141.143 54.240,141.143 65.708 M196.641 65.786 L 196.571 86.857 202.429 86.857 L 208.286 86.857 208.220 80.357 L 208.154 73.857 208.072 80.214 L 207.989 86.571 202.425 86.571 L 196.861 86.571 196.786 65.643 L 196.711 44.714 196.641 65.786 M218.357 45.054 C 218.632 45.126,219.082 45.126,219.357 45.054 C 219.632 44.982,219.407 44.923,218.857 44.923 C 218.307 44.923,218.082 44.982,218.357 45.054 M243.498 65.786 L 243.429 86.857 249.286 86.857 L 255.143 86.857 255.073 65.786 L 255.004 44.714 254.929 65.643 L 254.853 86.571 249.286 86.571 L 243.718 86.571 243.643 65.643 L 243.568 44.714 243.498 65.786 M301.857 49.714 C 302.631 50.500,303.329 51.143,303.407 51.143 C 303.486 51.143,302.917 50.500,302.143 49.714 C 301.369 48.929,300.671 48.286,300.593 48.286 C 300.514 48.286,301.083 48.929,301.857 49.714 M164.409 54.948 C 164.330 55.155,164.307 56.666,164.358 58.305 L 164.451 61.286 164.511 58.075 L 164.571 54.864 175.357 54.786 L 186.143 54.707 175.348 54.639 C 166.633 54.585,164.526 54.644,164.409 54.948 M208.133 59.928 L 208.143 65.000 212.143 65.012 L 216.143 65.024 212.221 64.933 L 208.299 64.842 208.211 59.849 L 208.122 54.857 208.133 59.928 M280.556 57.357 L 279.571 58.429 280.643 57.444 C 281.640 56.527,281.846 56.286,281.627 56.286 C 281.580 56.286,281.098 56.768,280.556 57.357 M232.929 59.286 C 232.932 59.914,232.991 60.138,233.059 59.782 C 233.128 59.427,233.125 58.913,233.053 58.640 C 232.982 58.366,232.926 58.657,232.929 59.286 M221.501 59.857 C 221.504 60.486,221.562 60.709,221.631 60.354 C 221.699 59.998,221.696 59.484,221.625 59.211 C 221.553 58.938,221.497 59.229,221.501 59.857 M164.395 73.571 C 164.395 75.457,164.442 76.191,164.498 75.203 C 164.553 74.215,164.553 72.672,164.497 71.775 C 164.440 70.877,164.394 71.686,164.395 73.571 M286.643 77.054 C 286.918 77.126,287.368 77.126,287.643 77.054 C 287.918 76.982,287.693 76.923,287.143 76.923 C 286.593 76.923,286.368 76.982,286.643 77.054 M62.214 79.356 C 64.454 79.405,68.118 79.405,70.357 79.356 C 72.596 79.308,70.764 79.269,66.286 79.269 C 61.807 79.269,59.975 79.308,62.214 79.356 M329.357 79.356 C 331.596 79.405,335.261 79.405,337.500 79.356 C 339.739 79.308,337.907 79.269,333.429 79.269 C 328.950 79.269,327.118 79.308,329.357 79.356 M49.429 86.571 L 43.286 86.731 49.340 86.794 C 53.138 86.834,55.461 86.751,55.571 86.571 C 55.669 86.414,55.708 86.314,55.660 86.349 C 55.611 86.383,52.807 86.483,49.429 86.571 M77.105 86.649 C 77.227 86.770,80.017 86.834,83.306 86.791 L 89.286 86.713 83.085 86.571 C 79.675 86.493,76.984 86.528,77.105 86.649 M221.044 86.643 C 221.117 86.761,224.126 86.857,227.731 86.857 C 231.336 86.857,234.286 86.761,234.286 86.643 C 234.286 86.525,231.277 86.429,227.599 86.429 C 223.921 86.429,220.971 86.525,221.044 86.643 M344.248 86.649 C 344.370 86.770,347.224 86.834,350.592 86.791 L 356.714 86.713 350.371 86.571 C 346.882 86.493,344.127 86.528,344.248 86.649 M161.357 86.786 C 165.954 86.830,173.475 86.830,178.071 86.786 C 182.668 86.741,178.907 86.705,169.714 86.705 C 160.521 86.705,156.761 86.741,161.357 86.786 M313.786 86.785 C 315.475 86.835,318.239 86.835,319.929 86.785 C 321.618 86.734,320.236 86.693,316.857 86.693 C 313.479 86.693,312.096 86.734,313.786 86.785 M285.929 87.635 C 286.439 87.699,287.275 87.699,287.786 87.635 C 288.296 87.572,287.879 87.520,286.857 87.520 C 285.836 87.520,285.418 87.572,285.929 87.635 M99.929 199.643 C 154.968 199.683,245.032 199.683,300.071 199.643 C 355.111 199.603,310.079 199.571,200.000 199.571 C 89.921 199.571,44.889 199.603,99.929 199.643 M67.280 219.500 L 64.714 222.143 67.357 219.577 C 68.811 218.166,70.000 216.977,70.000 216.935 C 70.000 216.727,69.663 217.045,67.280 219.500 M138.708 219.500 L 136.143 222.143 138.786 219.577 C 141.240 217.195,141.559 216.857,141.351 216.857 C 141.309 216.857,140.119 218.046,138.708 219.500 M210.137 219.500 L 207.571 222.143 210.214 219.577 C 212.669 217.195,212.987 216.857,212.780 216.857 C 212.737 216.857,211.548 218.046,210.137 219.500 M281.565 219.500 L 279.000 222.143 281.643 219.577 C 284.097 217.195,284.416 216.857,284.208 216.857 C 284.166 216.857,282.976 218.046,281.565 219.500 M352.994 219.500 L 350.429 222.143 353.071 219.577 C 355.526 217.195,355.844 216.857,355.637 216.857 C 355.594 216.857,354.405 218.046,352.994 219.500 M99.929 241.929 C 154.968 241.968,245.032 241.968,300.071 241.929 C 355.111 241.889,310.079 241.856,200.000 241.856 C 89.921 241.856,44.889 241.889,99.929 241.929 M91.286 260.742 C 92.601 260.956,94.794 260.984,94.671 260.786 C 94.597 260.668,93.677 260.589,92.626 260.610 C 91.575 260.632,90.971 260.691,91.286 260.742 M99.333 260.762 C 99.229 260.867,99.145 261.092,99.147 261.262 C 99.150 261.432,99.262 261.398,99.396 261.186 C 99.567 260.916,100.116 260.830,101.222 260.900 C 102.092 260.955,102.744 260.904,102.671 260.786 C 102.506 260.521,99.595 260.500,99.333 260.762 M107.329 260.786 C 107.256 260.904,107.860 260.963,108.670 260.917 C 111.105 260.781,111.402 260.652,109.374 260.610 C 108.323 260.589,107.403 260.668,107.329 260.786 M113.562 260.922 C 113.482 261.129,113.452 264.125,113.494 267.578 L 113.571 273.857 115.429 273.857 L 117.286 273.857 117.286 267.286 L 117.286 260.714 115.496 260.629 C 114.213 260.568,113.666 260.651,113.562 260.922 M119.768 262.357 L 119.822 264.143 119.925 262.500 L 120.029 260.857 125.571 260.857 L 131.114 260.857 131.217 262.500 L 131.321 264.143 131.375 262.357 L 131.429 260.571 125.571 260.571 L 119.714 260.571 119.768 262.357 M133.714 267.286 L 133.714 274.000 135.643 273.945 L 137.571 273.890 135.786 273.788 L 134.000 273.687 134.000 267.286 L 134.000 260.884 135.786 260.783 L 137.571 260.682 135.643 260.626 L 133.714 260.571 133.714 267.286 M142.059 263.214 L 142.118 265.857 142.213 263.370 L 142.308 260.884 144.082 260.783 L 145.857 260.682 143.929 260.626 L 142.000 260.571 142.059 263.214 M156.929 260.783 C 157.989 260.838,159.725 260.838,160.786 260.783 C 161.846 260.728,160.979 260.683,158.857 260.683 C 156.736 260.683,155.868 260.728,156.929 260.783 M171.226 260.784 C 172.293 260.839,173.965 260.838,174.940 260.783 C 175.916 260.727,175.043 260.682,173.000 260.682 C 170.957 260.683,170.159 260.728,171.226 260.784 M183.848 260.922 C 183.768 261.129,183.738 264.125,183.780 267.578 L 183.857 273.857 185.714 273.857 L 187.571 273.857 187.571 267.286 L 187.571 260.714 185.782 260.629 C 184.499 260.568,183.952 260.651,183.848 260.922 M195.571 260.742 C 196.887 260.956,199.079 260.984,198.956 260.786 C 198.883 260.668,197.963 260.589,196.912 260.610 C 195.860 260.632,195.257 260.691,195.571 260.742 M208.138 260.785 C 209.197 260.850,210.067 261.074,210.424 261.373 C 210.996 261.854,210.997 261.853,210.456 261.214 C 209.989 260.664,209.662 260.579,208.170 260.625 L 206.429 260.679 208.138 260.785 M217.071 260.775 L 218.857 260.884 218.857 267.325 L 218.857 273.765 217.156 273.668 C 216.220 273.615,215.559 273.675,215.687 273.802 C 215.814 273.929,216.612 273.993,217.459 273.945 L 219.000 273.857 219.000 267.286 L 219.000 260.714 217.143 260.690 L 215.286 260.666 217.071 260.775 M229.065 260.778 C 229.572 260.841,230.472 260.842,231.065 260.780 C 231.658 260.718,231.243 260.666,230.143 260.665 C 229.043 260.664,228.558 260.715,229.065 260.778 M245.929 260.785 L 251.143 260.870 251.143 262.292 L 251.143 263.714 247.697 263.714 L 244.251 263.714 244.340 264.786 L 244.429 265.857 247.500 265.938 L 250.571 266.019 250.571 267.295 L 250.571 268.571 247.429 268.571 L 244.286 268.571 244.286 269.714 L 244.286 270.857 247.929 270.795 L 251.571 270.734 248.071 270.644 L 244.571 270.554 244.571 269.715 L 244.571 268.876 247.643 268.795 L 250.714 268.714 250.801 267.214 L 250.887 265.714 247.729 265.714 L 244.571 265.714 244.571 264.857 L 244.571 264.000 248.000 264.000 L 251.429 264.000 251.429 262.286 L 251.429 260.571 246.071 260.636 L 240.714 260.701 245.929 260.785 M254.133 260.922 C 254.054 261.129,254.023 264.125,254.066 267.578 L 254.143 273.857 256.000 273.857 L 257.857 273.857 257.876 271.286 L 257.895 268.714 257.793 271.214 L 257.692 273.714 255.989 273.714 L 254.286 273.714 254.286 267.286 L 254.286 260.857 255.989 260.857 L 257.692 260.857 257.792 263.286 L 257.893 265.716 257.875 263.215 L 257.857 260.714 256.068 260.629 C 254.785 260.568,254.237 260.651,254.133 260.922 M262.412 260.940 C 262.328 261.158,262.304 262.353,262.358 263.597 L 262.456 265.857 262.514 263.357 L 262.571 260.857 264.286 260.857 L 266.000 260.857 266.000 267.286 L 266.000 273.714 264.297 273.714 L 262.594 273.714 262.492 271.214 L 262.391 268.714 262.410 271.286 L 262.429 273.857 264.286 273.857 L 266.143 273.857 266.143 267.286 L 266.143 260.714 264.353 260.629 C 263.031 260.566,262.524 260.647,262.412 260.940 M269.271 260.935 C 269.194 261.135,269.166 264.125,269.209 267.578 L 269.286 273.857 271.143 273.857 L 273.000 273.857 273.085 271.898 L 273.170 269.939 274.023 270.064 C 274.539 270.140,274.772 270.086,274.613 269.928 C 273.726 269.041,273.001 269.834,272.916 271.786 L 272.831 273.714 271.130 273.714 L 269.429 273.714 269.429 267.294 L 269.429 260.874 273.071 260.785 L 276.714 260.696 273.062 260.634 C 270.322 260.587,269.376 260.662,269.271 260.935 M286.372 260.785 C 287.912 260.836,290.355 260.836,291.801 260.784 C 293.246 260.732,291.986 260.690,289.000 260.691 C 286.014 260.691,284.832 260.733,286.372 260.785 M298.940 260.784 C 300.008 260.839,301.679 260.838,302.655 260.783 C 303.630 260.727,302.757 260.682,300.714 260.682 C 298.671 260.683,297.873 260.728,298.940 260.784 M117.143 267.286 L 117.143 273.714 115.429 273.714 L 113.714 273.714 113.714 267.286 L 113.714 260.857 115.429 260.857 L 117.143 260.857 117.143 267.286 M187.429 267.286 L 187.429 273.714 185.714 273.714 L 184.000 273.714 184.000 267.286 L 184.000 260.857 185.714 260.857 L 187.429 260.857 187.429 267.286 M158.649 264.857 C 158.649 265.564,158.705 265.854,158.773 265.500 C 158.841 265.146,158.841 264.568,158.773 264.214 C 158.705 263.861,158.649 264.150,158.649 264.857 M172.973 264.110 C 172.889 264.328,172.861 265.067,172.911 265.753 L 173.000 267.000 174.644 267.023 L 176.289 267.047 174.716 266.938 L 173.143 266.829 173.143 265.429 L 173.143 264.030 174.643 263.925 L 176.143 263.820 174.634 263.767 C 173.573 263.730,173.080 263.832,172.973 264.110 M273.048 263.905 C 272.943 264.010,272.857 264.781,272.857 265.619 L 272.857 267.143 274.500 267.090 L 276.143 267.037 274.643 266.932 L 273.143 266.827 273.143 265.429 L 273.143 264.031 274.500 263.924 L 275.857 263.817 274.548 263.766 C 273.827 263.737,273.152 263.800,273.048 263.905 M287.254 264.122 C 286.685 265.606,287.105 265.852,290.357 265.938 L 293.429 266.019 293.429 267.286 L 293.429 268.552 290.357 268.633 L 287.286 268.714 287.286 269.714 L 287.286 270.714 290.714 270.727 L 294.143 270.741 290.786 270.647 L 287.429 270.554 287.429 269.705 L 287.429 268.857 290.571 268.857 L 293.714 268.857 293.714 267.286 L 293.714 265.714 290.571 265.714 L 287.429 265.714 287.429 264.866 L 287.429 264.018 290.929 263.928 L 294.429 263.838 290.920 263.776 C 288.102 263.726,287.380 263.795,287.254 264.122 M300.687 264.110 C 300.604 264.328,300.576 265.067,300.625 265.753 L 300.714 267.000 302.359 267.023 L 304.003 267.047 302.430 266.938 L 300.857 266.829 300.857 265.429 L 300.857 264.030 302.357 263.925 L 303.857 263.820 302.348 263.767 C 301.288 263.730,300.794 263.832,300.687 264.110 M180.935 265.143 C 180.935 265.850,180.991 266.139,181.059 265.786 C 181.127 265.432,181.127 264.854,181.059 264.500 C 180.991 264.146,180.935 264.436,180.935 265.143 M308.649 265.143 C 308.649 265.850,308.705 266.139,308.773 265.786 C 308.841 265.432,308.841 264.854,308.773 264.500 C 308.705 264.146,308.649 264.436,308.649 265.143 M197.000 268.571 L 195.571 268.767 197.071 268.812 C 197.911 268.837,198.571 268.731,198.571 268.571 C 198.571 268.414,198.539 268.306,198.500 268.331 C 198.461 268.355,197.786 268.464,197.000 268.571 M158.649 269.714 C 158.649 270.421,158.705 270.711,158.773 270.357 C 158.841 270.004,158.841 269.425,158.773 269.071 C 158.705 268.718,158.649 269.007,158.649 269.714 M142.059 271.357 L 142.000 274.000 143.929 273.945 L 145.857 273.890 144.082 273.789 L 142.308 273.688 142.213 271.201 L 142.118 268.714 142.059 271.357 M173.048 269.905 C 172.943 270.010,172.857 270.903,172.857 271.891 L 172.857 273.687 171.071 273.788 L 169.286 273.890 171.214 273.945 L 173.143 274.000 173.143 272.000 C 173.143 269.887,173.715 269.338,174.858 270.357 C 175.198 270.661,175.202 270.640,174.880 270.214 C 174.506 269.720,173.416 269.536,173.048 269.905 M300.762 269.905 C 300.657 270.010,300.571 270.903,300.571 271.891 L 300.571 273.687 298.786 273.788 L 297.000 273.890 298.929 273.945 L 300.857 274.000 300.857 272.019 C 300.857 270.077,300.873 270.036,301.643 269.919 L 302.429 269.800 301.690 269.757 C 301.285 269.734,300.867 269.800,300.762 269.905 M233.500 270.783 C 234.404 270.839,235.882 270.839,236.786 270.783 C 237.689 270.726,236.950 270.679,235.143 270.679 C 233.336 270.679,232.596 270.726,233.500 270.783 M280.987 273.408 C 281.155 273.680,280.710 273.740,279.058 273.667 C 277.876 273.614,276.970 273.668,277.043 273.786 C 277.117 273.904,278.133 274.000,279.303 274.000 C 281.280 274.000,281.891 273.748,281.099 273.258 C 280.886 273.127,280.847 273.181,280.987 273.408 M177.044 273.786 C 177.117 273.904,178.133 274.000,179.303 274.000 C 180.472 274.000,181.429 273.904,181.429 273.786 C 181.429 273.668,180.412 273.571,179.170 273.571 C 177.928 273.571,176.971 273.668,177.044 273.786 M189.714 273.786 C 189.714 273.904,190.646 273.982,191.786 273.961 C 193.967 273.920,193.729 273.792,191.214 273.654 C 190.389 273.609,189.714 273.668,189.714 273.786 M200.542 273.800 C 200.669 273.926,201.595 273.989,202.600 273.940 L 204.429 273.851 202.370 273.711 C 201.238 273.634,200.415 273.674,200.542 273.800 M304.758 273.786 C 304.831 273.904,305.848 274.000,307.017 274.000 C 308.186 274.000,309.143 273.904,309.143 273.786 C 309.143 273.668,308.127 273.571,306.884 273.571 C 305.642 273.571,304.686 273.668,304.758 273.786 M124.494 273.920 C 125.001 273.984,125.901 273.985,126.494 273.923 C 127.086 273.861,126.671 273.809,125.571 273.808 C 124.471 273.807,123.986 273.857,124.494 273.920 M156.916 273.926 C 157.970 273.981,159.770 273.981,160.916 273.927 C 162.062 273.872,161.200 273.827,159.000 273.827 C 156.800 273.827,155.862 273.871,156.916 273.926 M207.351 273.920 C 207.858 273.984,208.758 273.985,209.351 273.923 C 209.944 273.861,209.529 273.809,208.429 273.808 C 207.329 273.807,206.844 273.857,207.351 273.920 M230.628 273.927 C 231.995 273.979,234.310 273.979,235.771 273.927 C 237.233 273.875,236.114 273.833,233.286 273.832 C 230.457 273.832,229.261 273.875,230.628 273.927 M243.515 273.927 C 245.055 273.979,247.498 273.979,248.943 273.927 C 250.389 273.875,249.129 273.833,246.143 273.833 C 243.157 273.834,241.975 273.876,243.515 273.927 M286.372 273.927 C 287.912 273.979,290.355 273.979,291.801 273.927 C 293.246 273.875,291.986 273.833,289.000 273.833 C 286.014 273.834,284.832 273.876,286.372 273.927 " stroke="none" fill="#5c8ce4" fill-rule="evenodd"></path><path id="path4" d="M99.929 108.786 C 154.968 108.825,245.032 108.825,300.071 108.786 C 355.111 108.746,310.079 108.713,200.000 108.713 C 89.921 108.713,44.889 108.746,99.929 108.786 M353.357 135.064 C 353.868 135.127,354.704 135.127,355.214 135.064 C 355.725 135.000,355.307 134.949,354.286 134.949 C 353.264 134.949,352.846 135.000,353.357 135.064 M79.802 135.356 C 81.657 135.406,84.614 135.406,86.373 135.356 C 88.132 135.306,86.614 135.265,83.000 135.265 C 79.386 135.266,77.947 135.307,79.802 135.356 M102.988 135.500 C 102.912 135.696,102.886 141.321,102.929 148.000 L 103.006 160.143 103.075 147.790 L 103.143 135.436 112.500 135.357 L 121.857 135.278 112.491 135.210 C 105.211 135.158,103.094 135.222,102.988 135.500 M137.142 135.357 C 137.142 135.475,138.074 135.536,139.214 135.493 C 142.962 135.352,143.334 135.240,140.214 135.191 C 138.525 135.164,137.143 135.239,137.142 135.357 M169.043 135.357 C 168.970 135.475,169.830 135.536,170.955 135.493 C 174.630 135.353,175.054 135.240,172.088 135.191 C 170.487 135.164,169.117 135.239,169.043 135.357 M184.375 135.357 C 187.017 135.404,191.260 135.404,193.804 135.357 C 196.347 135.309,194.186 135.271,189.000 135.271 C 183.814 135.271,181.733 135.310,184.375 135.357 M218.945 135.356 C 220.800 135.406,223.757 135.406,225.516 135.356 C 227.275 135.306,225.757 135.265,222.143 135.265 C 218.529 135.266,217.089 135.307,218.945 135.356 M242.068 147.643 L 242.137 160.143 242.214 147.790 L 242.292 135.436 251.646 135.357 L 261.000 135.278 251.500 135.210 L 242.000 135.143 242.068 147.643 M298.214 135.356 C 299.825 135.407,302.461 135.407,304.071 135.356 C 305.682 135.305,304.364 135.263,301.143 135.263 C 297.921 135.263,296.604 135.305,298.214 135.356 M319.143 135.412 C 319.143 135.560,319.291 135.772,319.473 135.884 C 319.674 136.009,319.725 135.963,319.605 135.768 C 319.464 135.540,320.341 135.421,322.632 135.356 L 325.857 135.265 322.500 135.204 C 320.549 135.168,319.143 135.256,319.143 135.412 M337.329 135.357 C 337.256 135.475,338.244 135.537,339.526 135.494 C 343.531 135.362,343.985 135.241,340.660 135.191 C 338.901 135.164,337.402 135.239,337.329 135.357 M82.190 140.190 C 82.086 140.295,82.000 141.967,82.000 143.905 L 82.000 147.429 85.357 147.367 L 88.714 147.306 85.500 147.215 L 82.286 147.124 82.286 143.715 L 82.286 140.306 85.214 140.213 L 88.143 140.121 85.262 140.060 C 83.677 140.027,82.295 140.086,82.190 140.190 M108.407 140.382 C 108.326 140.593,108.304 141.782,108.358 143.025 L 108.456 145.286 108.514 142.791 L 108.571 140.296 115.214 140.214 L 121.857 140.132 115.205 140.066 C 109.867 140.013,108.525 140.076,108.407 140.382 M184.978 140.382 C 184.897 140.593,184.876 141.782,184.930 143.025 L 185.028 145.286 185.085 142.791 L 185.143 140.296 191.786 140.214 L 198.429 140.132 191.777 140.066 C 186.438 140.013,185.096 140.076,184.978 140.382 M222.653 140.211 C 223.563 140.268,224.977 140.268,225.796 140.210 C 226.615 140.153,225.871 140.106,224.143 140.107 C 222.414 140.108,221.744 140.155,222.653 140.211 M247.487 142.643 L 247.546 145.286 247.641 142.791 L 247.736 140.296 254.368 140.214 L 261.000 140.132 254.214 140.066 L 247.429 140.000 247.487 142.643 M300.986 140.362 C 300.910 140.561,300.884 144.000,300.929 148.005 L 301.010 155.286 301.077 147.797 L 301.143 140.309 303.500 140.213 L 305.857 140.116 303.491 140.058 C 301.800 140.017,301.085 140.103,300.986 140.362 M97.221 143.429 C 97.221 144.136,97.276 144.425,97.344 144.071 C 97.413 143.718,97.413 143.139,97.344 142.786 C 97.276 142.432,97.221 142.721,97.221 143.429 M120.101 147.571 C 120.101 148.986,120.149 149.600,120.209 148.937 C 120.269 148.274,120.269 147.117,120.210 146.366 C 120.151 145.615,120.102 146.157,120.101 147.571 M196.673 147.571 C 196.672 148.986,196.720 149.600,196.780 148.937 C 196.840 148.274,196.841 147.117,196.782 146.366 C 196.723 145.615,196.674 146.157,196.673 147.571 M222.797 147.355 C 223.785 147.411,225.328 147.410,226.225 147.354 C 227.123 147.297,226.314 147.251,224.429 147.252 C 222.543 147.252,221.809 147.299,222.797 147.355 M94.982 149.214 L 94.143 150.143 95.071 149.304 C 95.937 148.521,96.131 148.286,95.911 148.286 C 95.861 148.286,95.444 148.704,94.982 149.214 M108.389 152.571 C 108.389 154.064,108.437 154.675,108.496 153.929 C 108.555 153.182,108.555 151.961,108.496 151.214 C 108.437 150.468,108.389 151.079,108.389 152.571 M184.960 152.571 C 184.960 154.064,185.008 154.675,185.067 153.929 C 185.126 153.182,185.126 151.961,185.067 151.214 C 185.008 150.468,184.960 151.079,184.960 152.571 M247.532 152.571 C 247.532 154.064,247.580 154.675,247.639 153.929 C 247.697 153.182,247.697 151.961,247.639 151.214 C 247.580 150.468,247.532 151.079,247.532 152.571 M334.118 155.000 C 334.118 157.829,334.161 158.947,334.213 157.486 C 334.265 156.024,334.265 153.710,334.213 152.343 C 334.160 150.976,334.118 152.171,334.118 155.000 M328.689 155.143 C 328.689 157.893,328.732 159.018,328.784 157.643 C 328.837 156.268,328.837 154.018,328.784 152.643 C 328.732 151.268,328.689 152.393,328.689 155.143 M351.830 151.207 C 351.958 151.849,355.720 151.869,355.692 151.227 C 355.679 150.928,355.609 150.863,355.525 151.071 C 355.348 151.509,352.116 151.567,351.902 151.136 C 351.822 150.975,351.790 151.007,351.830 151.207 M82.063 156.071 L 82.125 160.143 82.214 156.226 L 82.302 152.309 84.508 152.212 L 86.714 152.115 84.357 152.057 L 82.000 152.000 82.063 156.071 M223.130 152.213 C 224.302 152.268,225.459 152.468,225.702 152.657 C 226.089 152.958,226.095 152.939,225.751 152.500 C 225.430 152.092,224.960 152.010,223.179 152.057 L 221.000 152.114 223.130 152.213 M56.214 154.499 C 57.668 154.550,60.046 154.550,61.500 154.499 C 62.954 154.447,61.764 154.404,58.857 154.404 C 55.950 154.404,54.761 154.447,56.214 154.499 M275.071 154.499 C 276.525 154.550,278.904 154.550,280.357 154.499 C 281.811 154.447,280.621 154.404,277.714 154.404 C 274.807 154.404,273.618 154.447,275.071 154.499 M350.693 154.665 C 350.613 154.874,350.591 156.192,350.644 157.594 L 350.740 160.143 350.798 157.357 L 350.857 154.571 353.561 154.571 L 356.265 154.571 356.358 157.357 L 356.452 160.143 356.512 157.214 L 356.571 154.286 353.705 154.286 C 351.585 154.286,350.801 154.385,350.693 154.665 M121.816 157.571 C 121.815 158.986,121.863 159.600,121.923 158.937 C 121.983 158.274,121.984 157.117,121.925 156.366 C 121.866 155.615,121.817 156.157,121.816 157.571 M198.387 157.571 C 198.386 158.986,198.435 159.600,198.494 158.937 C 198.554 158.274,198.555 157.117,198.496 156.366 C 198.437 155.615,198.388 156.157,198.387 157.571 M260.959 157.571 C 260.958 158.986,261.006 159.600,261.066 158.937 C 261.126 158.274,261.127 157.117,261.068 156.366 C 261.008 155.615,260.959 156.157,260.959 157.571 M145.428 160.071 C 145.428 160.189,146.618 160.265,148.071 160.240 C 150.758 160.194,150.438 160.080,147.214 159.937 C 146.231 159.893,145.428 159.954,145.428 160.071 M163.857 160.000 L 161.286 160.178 163.769 160.232 C 165.178 160.262,166.328 160.162,166.429 160.000 C 166.526 159.843,166.565 159.739,166.517 159.768 C 166.468 159.798,165.271 159.902,163.857 160.000 M147.663 301.643 C 151.484 301.688,157.656 301.688,161.377 301.643 C 165.098 301.597,161.971 301.561,154.429 301.561 C 146.886 301.561,143.841 301.598,147.663 301.643 M45.719 320.500 C 45.722 320.881,45.780 320.910,45.963 320.621 C 46.141 320.341,46.845 320.266,48.647 320.335 C 49.991 320.386,51.030 320.332,50.957 320.214 C 50.641 319.706,45.714 319.975,45.719 320.500 M57.048 320.190 C 56.943 320.295,56.859 320.520,56.862 320.690 C 56.864 320.884,56.948 320.872,57.084 320.657 C 57.212 320.456,58.190 320.272,59.437 320.213 L 61.571 320.114 59.405 320.057 C 58.213 320.026,57.152 320.086,57.048 320.190 M67.615 320.214 C 67.541 320.332,68.273 320.393,69.241 320.349 C 72.392 320.207,72.764 320.092,70.231 320.046 C 68.865 320.021,67.688 320.096,67.615 320.214 M94.514 324.858 C 94.467 327.372,94.525 329.429,94.643 329.429 C 94.761 329.429,94.857 327.371,94.857 324.857 C 94.857 318.942,94.624 318.942,94.514 324.858 M99.270 328.857 C 99.270 333.650,99.309 335.611,99.357 333.214 C 99.404 330.818,99.404 326.896,99.357 324.500 C 99.309 322.104,99.270 324.064,99.270 328.857 M120.395 334.143 C 120.395 336.029,120.442 336.763,120.498 335.775 C 120.553 334.786,120.553 333.243,120.497 332.346 C 120.440 331.449,120.394 332.257,120.395 334.143 M154.789 333.631 C 155.144 333.699,155.659 333.696,155.932 333.625 C 156.205 333.553,155.914 333.497,155.286 333.501 C 154.657 333.504,154.434 333.562,154.789 333.631 M154.643 337.911 C 154.918 337.983,155.368 337.983,155.643 337.911 C 155.918 337.839,155.693 337.781,155.143 337.781 C 154.593 337.781,154.368 337.839,154.643 337.911 " stroke="none" fill="#ec94a4" fill-rule="evenodd"></path></g></svg>